<?xml version="1.0" standalone="no"?>
<!DOCTYPE svg PUBLIC "-//W3C//DTD SVG 20010904//EN"
 "http://www.w3.org/TR/2001/REC-SVG-20010904/DTD/svg10.dtd">
<svg version="1.0" xmlns="http://www.w3.org/2000/svg"
 width="30.000000pt" height="30.000000pt" viewBox="0 0 30.000000 30.000000"
 preserveAspectRatio="xMidYMid meet">

<g transform="translate(0.000000,30.000000) scale(0.100000,-0.100000)"
fill="#000000" stroke="none">
<path d="M40 235 l0 -25 110 0 110 0 0 25 0 25 -110 0 -110 0 0 -25z"/>
<path d="M47 173 c-4 -3 -7 -15 -7 -25 0 -16 10 -18 110 -18 l110 0 0 25 0 25
-103 0 c-57 0 -107 -3 -110 -7z"/>
<path d="M47 94 c-4 -4 -7 -16 -7 -26 0 -16 10 -18 111 -18 109 0 110 0 107
23 -3 21 -8 22 -104 25 -55 1 -103 0 -107 -4z"/>
</g>
</svg>
